<?xml version="1.0" encoding="utf-8"?>
<!-- Generator: Adobe Illustrator 16.0.0, SVG Export Plug-In . SVG Version: 6.00 Build 0)  -->
<!DOCTYPE svg PUBLIC "-//W3C//DTD SVG 1.1//EN" "http://www.w3.org/Graphics/SVG/1.1/DTD/svg11.dtd">
<svg version="1.1" xmlns="http://www.w3.org/2000/svg" xmlns:xlink="http://www.w3.org/1999/xlink" x="0px" y="0px" width="350px"
	 height="350px" viewBox="0 0 350 350" enable-background="new 0 0 350 350" xml:space="preserve">
<g id="Layer_2">
	<rect fill="#E2DFDF" width="351" height="350"/>
</g>
<g id="Layer_1">
	<g id="Page-1">
		<g id="Dribbble-Light-Preview" transform="translate(-140.000000, -2199.000000)">
			<g id="icons" transform="translate(56.000000, 160.000000)">
				<path id="profile_x5F_image_x5F_round-_x5B__x23_1332_x5D_" d="M400.224,2262.773v61.229h-0.024
					c-0.143,13.405-11.015,24.232-24.443,24.232c-13.524,0-24.469-10.955-24.469-24.494c0-13.513,10.944-24.479,24.469-24.479
					v-11.997h-48.937v48.986h-0.024c-0.142,13.404-11.016,24.229-24.443,24.229c-13.526,0-24.469-10.959-24.469-24.49
					c0-13.517,10.942-24.494,24.469-24.494v-48.722H400.224z M143.308,2275.019v-171.42c0-6.762,5.484-12.245,12.233-12.245h84.856
					c-33.41,0.424-60.388,27.634-60.388,61.182c0,17.683,7.613,33.512,19.601,44.696c-30.526,14.179-52.543,43.559-56.153,78.517
					C143.445,2275.487,143.308,2275.283,143.308,2275.019L143.308,2275.019z M277.883,2152.571c0,17.636-12.491,32.391-29.08,35.916
					c-7.169-0.585-9.288-0.492-15.353-0.038c-16.53-3.56-28.971-18.278-28.971-35.878c0-20.251,16.469-36.731,36.701-36.731
					C261.413,2115.839,277.883,2132.32,277.883,2152.571L277.883,2152.571z M266.747,2287.265h-99.276
					c-0.011,0-0.072-0.812-0.072-1.313c0-37.896,28.835-69.104,65.694-72.974c11.44,1.53,7.366,0.788,15.71-0.268
					c11.595,1.26,22.319,1.141,31.649,9.824c2.258,2.081,5.029,3.513,8.1,3.513c14.468,0,17.025-14.33,8.854-20.13
					c-4.672-3.333-9.654-6.26-14.936-8.746c12.151-11.193,19.882-26.929,19.882-44.754c0-33.536-26.978-60.639-60.39-61.063h84.857
					c6.749,0,12.235,5.483,12.235,12.245V2214.9c0,6.152,4.993,11.146,11.135,11.146h2.196c6.153,0,11.136-4.993,11.136-11.146
					v-123.547c0-13.536-10.943-24.492-24.467-24.492H143.308c-13.519,0-24.468,10.956-24.468,24.492v195.911
					c0,13.523,10.95,24.492,24.468,24.492h123.439c6.153,0,11.136-4.981,11.136-11.144
					C277.883,2291.329,272.912,2287.265,266.747,2287.265L266.747,2287.265z"/>
			</g>
		</g>
	</g>
</g>
</svg>
